<?xml version="1.0" encoding="iso-8859-1"?>
<!-- Generator: Adobe Illustrator 19.0.0, SVG Export Plug-In . SVG Version: 6.00 Build 0)  -->
<svg version="1.1" id="Capa_1" xmlns="http://www.w3.org/2000/svg" xmlns:xlink="http://www.w3.org/1999/xlink" x="0px" y="0px"
	 viewBox="0 0 512 512" style="enable-background:new 0 0 512 512;" xml:space="preserve">
<g>
	<g>
		<path d="M477.858,17.067H34.142C15.317,17.067,0,32.384,0,51.208v264.525c0,4.71,3.823,8.533,8.533,8.533h494.933
			c4.71,0,8.533-3.823,8.533-8.533V51.208C512,32.384,496.683,17.067,477.858,17.067z M494.933,307.2H17.067V51.208
			c0-9.421,7.663-17.075,17.075-17.075h443.716c9.412,0,17.075,7.654,17.075,17.075V307.2z"/>
	</g>
</g>
<g>
	<g>
		<path d="M503.467,307.2H8.533c-4.71,0-8.533,3.823-8.533,8.533v42.658c0,18.825,15.317,34.142,34.142,34.142h443.716
			c18.825,0,34.142-15.317,34.142-34.142v-42.658C512,311.023,508.177,307.2,503.467,307.2z M494.933,358.391
			c0,9.421-7.663,17.075-17.075,17.075H34.142c-9.412,0-17.075-7.654-17.075-17.075v-34.125h477.867V358.391z"/>
	</g>
</g>
<g>
	<g>
		<path d="M281.6,341.333h-51.2c-4.71,0-8.533,3.823-8.533,8.533c0,4.71,3.823,8.533,8.533,8.533h51.2
			c4.71,0,8.533-3.823,8.533-8.533C290.133,345.156,286.31,341.333,281.6,341.333z"/>
	</g>
</g>
<g>
	<g>
		<path d="M469.333,51.2H42.667c-4.71,0-8.533,3.823-8.533,8.533v256c0,4.71,3.823,8.533,8.533,8.533h426.667
			c4.71,0,8.533-3.823,8.533-8.533v-256C477.867,55.023,474.044,51.2,469.333,51.2z M460.8,307.2H51.2V68.267h409.6V307.2z"/>
	</g>
</g>
<g>
	<g>
		<path d="M366.933,443.733H145.067c-14.114,0-25.6,11.486-25.6,25.6c0,14.114,11.486,25.6,25.6,25.6h221.867
			c14.114,0,25.6-11.486,25.6-25.6C392.533,455.219,381.047,443.733,366.933,443.733z M366.933,477.867H145.067
			c-4.71,0-8.533-3.831-8.533-8.533c0-4.702,3.823-8.533,8.533-8.533h221.867c4.71,0,8.533,3.831,8.533,8.533
			C375.467,474.035,371.644,477.867,366.933,477.867z"/>
	</g>
</g>
<g>
	<g>
		<path d="M349.867,443.733c-28.314,0-42.667-20.096-42.667-59.733c0-4.71-3.823-8.533-8.533-8.533h-85.333
			c-4.71,0-8.533,3.823-8.533,8.533c0,39.637-14.353,59.733-42.667,59.733c-4.71,0-8.533,3.823-8.533,8.533s3.823,8.533,8.533,8.533
			h187.733c4.71,0,8.533-3.823,8.533-8.533S354.577,443.733,349.867,443.733z M203.699,443.733
			c10.505-11.639,16.691-28.971,17.937-51.2h68.736c1.237,22.229,7.424,39.561,17.937,51.2H203.699z"/>
	</g>
</g>
<g>
	<g>
		<path d="M398.865,182.016l-42.786-47.428c-26.624-31.753-62.157-49.246-100.053-49.254c-0.009,0-0.009,0-0.017,0
			c-37.897,0-73.446,17.493-99.891,49.024l-42.991,47.659c-2.85,3.166-2.935,7.953-0.188,11.213l42.991,51.072
			c0.043,0.051,0.085,0.094,0.128,0.145c25.506,28.962,60.015,45.175,97.152,45.679c0.597,0.008,1.186,0.008,1.784,0.008
			c37.717,0,73.463-16.119,101.069-45.833l42.991-51.072C401.801,189.969,401.715,185.182,398.865,182.016z M343.296,233.003
			c-24.448,26.291-56.397,40.661-89.856,40.064c-32.23-0.435-62.242-14.583-84.523-39.825l-38.144-45.32l38.212-42.368
			c23.347-27.827,54.246-43.153,87.023-43.153c0.009,0,0.017,0,0.017,0c32.768,0,63.659,15.334,87.185,43.401l38.007,42.138
			L343.296,233.003z"/>
	</g>
</g>
<g>
	<g>
		<path d="M256,136.533c-28.228,0-51.2,22.963-51.2,51.2s22.972,51.2,51.2,51.2s51.2-22.963,51.2-51.2S284.228,136.533,256,136.533z
			 M256,221.867c-18.825,0-34.133-15.309-34.133-34.133S237.175,153.6,256,153.6c18.825,0,34.133,15.309,34.133,34.133
			S274.825,221.867,256,221.867z"/>
	</g>
</g>
<g>
</g>
<g>
</g>
<g>
</g>
<g>
</g>
<g>
</g>
<g>
</g>
<g>
</g>
<g>
</g>
<g>
</g>
<g>
</g>
<g>
</g>
<g>
</g>
<g>
</g>
<g>
</g>
<g>
</g>
</svg>
